<svg role="img" viewBox="0 0 24 24" fill="currentColor" xmlns="http://www.w3.org/2000/svg">
  <title>GitHub</title>
  <path d="M12 .5C5.73.5.5 5.74.5 12.02c0 5.1 3.29 9.43 7.86 10.96.57.1.78-.25.78-.56v-2.02c-3.2.7-3.88-1.38-3.88-1.38-.53-1.35-1.3-1.71-1.3-1.71-1.06-.73.08-.72.08-.72 1.17.08 1.79 1.2 1.79 1.2 1.04 1.78 2.72 1.27 3.39.97.1-.75.4-1.27.73-1.56-2.55-.29-5.23-1.28-5.23-5.69 0-1.26.45-2.29 1.19-3.1-.12-.29-.52-1.47.11-3.06 0 0 .97-.31 3.18 1.18a11.1 11.1 0 0 1 5.79 0c2.2-1.49 3.17-1.18 3.17-1.18.64 1.59.24 2.77.12 3.06.74.81 1.18 1.84 1.18 3.1 0 4.42-2.69 5.39-5.25 5.67.41.35.78 1.04.78 2.1v3.12c0 .31.2.67.79.56A11.52 11.52 0 0 0 23.5 12C23.5 5.74 18.27.5 12 .5z"/>
</svg>
